<svg style="position: absolute; width: 0; height: 0; overflow: hidden;" version="1.1" xmlns="http://www.w3.org/2000/svg" xmlns:xlink="http://www.w3.org/1999/xlink">
  <defs>
    <symbol id="name-lines" viewBox="0 0 50 50">
    <title>name</title>
      <g>
        <path d="M0 1H38" transform="translate(6 31)" stroke-width="2" stroke-linecap="square"/>
        <path d="M0 1H26" transform="translate(6 18)" stroke-width="2" stroke-linecap="square"/>
      </g>
    </symbol>
    <symbol id="password" viewBox="0 0 50 50">
      <title>password</title>
      <g>
        <path d="M1 20C1 9.50659 9.50659 1 20 1C30.4934 1 39 9.50659 39 20C39 30.4934 30.4934 39 20 39C9.50659 39 1 30.4934 1 20Z" transform="translate(5 11)" stroke-width="2" stroke-linecap="round"/>
        <path d="M9 5C9 7.20914 7.20914 9 5 9C2.79086 9 1 7.20914 1 5C1 2.79086 2.79086 1 5 1C7.20914 1 9 2.79086 9 5Z" transform="translate(20 26)" stroke-width="2"/>
        <path d="M0 13V9.77941C0 4.38704 4.486 0 10 0C15.514 0 20 4.38704 20 9.77941V13" transform="translate(15 1)"  stroke-width="2"/>
      </g>
    </symbol>
    <symbol id="email" viewBox="0 0 50 50">
      <title>email</title>
      <g>
        <path d="M1 4C1 2.34315 2.34315 1 4 1H36C37.6569 1 39 2.34315 39 4V30C39 31.6569 37.6569 33 36 33H4C2.34315 33 1 31.6569 1 30V4Z" transform="translate(5 8)"  stroke-width="2" stroke-linecap="round"/>
        <path d="M35 0L17.5001 18L0 0" transform="translate(8 9)"  stroke-width="2"/>
      </g>
    </symbol>
  </defs>
</svg>

