<svg style="position: absolute; width: 0; height: 0; overflow: hidden;" version="1.1" xmlns="http://www.w3.org/2000/svg" xmlns:xlink="http://www.w3.org/1999/xlink">
  <defs>
    <symbol id="name-lines" viewBox="0 0 50 50">
    <title>name</title>
      <g>
        <path d="M0 1H38" transform="translate(6 31)" stroke-width="2" stroke-linecap="square"/>
        <path d="M0 1H26" transform="translate(6 18)" stroke-width="2" stroke-linecap="square"/>
      </g>
    </symbol>
    <symbol id="password" viewBox="0 0 50 50">
      <title>password</title>
      <g>
        <path d="M1 20C1 9.50659 9.50659 1 20 1C30.4934 1 39 9.50659 39 20C39 30.4934 30.4934 39 20 39C9.50659 39 1 30.4934 1 20Z" transform="translate(5 11)" stroke-width="2" stroke-linecap="round"/>
        <path d="M9 5C9 7.20914 7.20914 9 5 9C2.79086 9 1 7.20914 1 5C1 2.79086 2.79086 1 5 1C7.20914 1 9 2.79086 9 5Z" transform="translate(20 26)" stroke-width="2"/>
        <path d="M0 13V9.77941C0 4.38704 4.486 0 10 0C15.514 0 20 4.38704 20 9.77941V13" transform="translate(15 1)"  stroke-width="2"/>
      </g>
    </symbol>
    <symbol id="email" viewBox="0 0 50 50">
      <title>email</title>
      <g>
        <path d="M1 4C1 2.34315 2.34315 1 4 1H36C37.6569 1 39 2.34315 39 4V30C39 31.6569 37.6569 33 36 33H4C2.34315 33 1 31.6569 1 30V4Z" transform="translate(5 8)"  stroke-width="2" stroke-linecap="round"/>
        <path d="M35 0L17.5001 18L0 0" transform="translate(8 9)"  stroke-width="2"/>
      </g>
    </symbol>
    <symbol id="logo" viewBox="0 0 45 45">
      <title>logo</title>
      <g>
        <path fill-rule="evenodd" clip-rule="evenodd" d="M10 38.0253C10 40.7728 7.75581 43 5 43C2.23858 43 0 40.7787 0 38.0253L0 4.97465C0 2.22723 2.2442 0 5 0C7.76142 0 10 2.22132 10 4.97465V38.0253Z" transform="translate(43.8572 43.7607) rotate(-180)" fill="white"/>
        <path fill-rule="evenodd" clip-rule="evenodd" d="M10 38.0253C10 40.7728 7.75581 43 5 43C2.23858 43 0 40.7787 0 38.0253L0 4.97465C0 2.22723 2.2442 0 5 0C7.76142 0 10 2.22132 10 4.97465V38.0253Z" transform="translate(43.8572 43.7607) rotate(-180)" fill="url(#paint0_linear)"/>
        <path fill-rule="evenodd" clip-rule="evenodd" d="M0 5C0 2.23858 2.23858 0 5 0C7.76142 0 10 2.23858 10 5V38C10 40.7614 7.76142 43 5 43C2.23858 43 0 40.7614 0 38V5Z" transform="translate(1 1.26001)" fill="white"/>
        <path fill-rule="evenodd" clip-rule="evenodd" d="M0 5C0 2.23858 2.23858 0 5 0C7.76142 0 10 2.23858 10 5V38C10 40.7614 7.76142 43 5 43C2.23858 43 0 40.7614 0 38V5Z" transform="translate(1 1.26001)" fill="url(#paint1_linear)"/>
        <path fill-rule="evenodd" clip-rule="evenodd" d="M42 34C43.4862 35.6022 43.4848 38.684 42 41C39.6041 42.4739 36.4578 42.4767 35 41L1 8C-0.486151 6.39784 -0.484848 3.31598 1 1C3.39588 -0.473878 6.54215 -0.476701 8 1L42 34Z" transform="translate(1 1.26001)" fill="white"/>
        <defs>
        <linearGradient id="paint0_linear" x2="1" gradientUnits="userSpaceOnUse" gradientTransform="translate(4.92857 20.2977) scale(4.70762 20.2977) rotate(-90)">
        <stop stop-color="white" stop-opacity="0.5"/>
        <stop offset="1" stop-opacity="0.3"/>
        </linearGradient>
        <linearGradient id="paint1_linear" x2="1" gradientUnits="userSpaceOnUse" gradientTransform="translate(5 20.5361) scale(4.77584 20.5361) rotate(-90)">
        <stop stop-color="white" stop-opacity="0.5"/>
        <stop offset="1" stop-opacity="0.3"/>
        </linearGradient>
        </defs>
      </g>
    </symbol>
  </defs>
</svg>


